<svg width="1818" height="352" viewBox="0 0 1818 352" fill="none" xmlns="http://www.w3.org/2000/svg">
<g filter="url(#filter0_f_4001_62)">
<path fill-rule="evenodd" clip-rule="evenodd" d="M425.144 262.511C396.422 286.369 361.488 299.58 325.463 309.906C270.263 325.729 208.707 363.034 159.779 338.576C112.661 315.021 91.5313 250.294 103.776 199.086C116.123 147.453 192.626 132.38 220.277 85.5756C239.038 53.817 211.612 11.9841 232.425 -18.6822C254.753 -51.5822 295.18 -69.1676 333.814 -81.7203C377.215 -95.8214 421.693 -98.7554 466.223 -94.6453C525.14 -89.2072 621.003 -108.659 633.337 -54.0742C647.999 10.8114 552.254 55.9508 513.474 114.458C497.862 138.012 488.123 162.593 473.697 186.774C458.053 212.995 449.137 242.581 425.144 262.511Z" fill="url(#paint0_linear_4001_62)"/>
</g>
<g filter="url(#filter1_f_4001_62)">
<path fill-rule="evenodd" clip-rule="evenodd" d="M1508.14 326.511C1479.42 350.369 1444.49 363.58 1408.46 373.906C1353.26 389.729 1291.71 427.034 1242.78 402.576C1195.66 379.021 1174.53 314.294 1186.78 263.086C1199.12 211.453 1275.63 196.38 1303.28 149.576C1322.04 117.817 1294.61 75.9841 1315.42 45.3178C1337.75 12.4178 1378.18 -5.16763 1416.81 -17.7203C1460.21 -31.8214 1504.69 -34.7554 1549.22 -30.6453C1608.14 -25.2072 1704 -44.6588 1716.34 9.92577C1731 74.8114 1635.25 119.951 1596.47 178.458C1580.86 202.012 1571.12 226.593 1556.7 250.774C1541.05 276.995 1532.14 306.581 1508.14 326.511Z" fill="url(#paint1_linear_4001_62)"/>
</g>
<defs>
<filter id="filter0_f_4001_62" x="0.359863" y="-196.353" width="734.491" height="643.019" filterUnits="userSpaceOnUse" color-interpolation-filters="sRGB">
<feFlood flood-opacity="0" result="BackgroundImageFix"/>
<feBlend mode="normal" in="SourceGraphic" in2="BackgroundImageFix" result="shape"/>
<feGaussianBlur stdDeviation="50" result="effect1_foregroundBlur_4001_62"/>
</filter>
<filter id="filter1_f_4001_62" x="1083.36" y="-132.353" width="734.491" height="643.019" filterUnits="userSpaceOnUse" color-interpolation-filters="sRGB">
<feFlood flood-opacity="0" result="BackgroundImageFix"/>
<feBlend mode="normal" in="SourceGraphic" in2="BackgroundImageFix" result="shape"/>
<feGaussianBlur stdDeviation="50" result="effect1_foregroundBlur_4001_62"/>
</filter>
<linearGradient id="paint0_linear_4001_62" x1="365.122" y1="281.419" x2="304.284" y2="-67.112" gradientUnits="userSpaceOnUse">
<stop stop-color="#6823FF"/>
<stop offset="1" stop-color="white" stop-opacity="0"/>
</linearGradient>
<linearGradient id="paint1_linear_4001_62" x1="1448.12" y1="345.419" x2="1387.28" y2="-3.11197" gradientUnits="userSpaceOnUse">
<stop stop-color="#6823FF"/>
<stop offset="1" stop-color="white" stop-opacity="0"/>
</linearGradient>
</defs>
</svg>
